<svg width="462" height="128" viewBox="0 0 462 128" fill="none" xmlns="http://www.w3.org/2000/svg">
<path d="M66.6118 24.5196C83.9827 19.8702 92.6681 17.5455 99.5105 21.4916C106.353 25.4378 108.68 34.1137 113.335 51.4655L116.563 63.4992C121.217 80.8511 123.544 89.527 119.594 96.3619C115.643 103.197 106.958 105.522 89.5872 110.171L59.8244 118.137C42.4536 122.787 33.7681 125.111 26.9257 121.165C20.0833 117.219 17.7561 108.543 13.1016 91.1912L9.87363 79.1575C5.21912 61.8057 2.89187 53.1298 6.84233 46.2948C10.7928 39.4599 19.4782 37.1352 36.8491 32.4858L66.6118 24.5196Z" fill="#030097"/>
<path d="M104.26 17.8291C121.631 22.4785 130.316 24.8032 134.267 31.6381C138.217 38.473 135.89 47.1489 131.235 64.5008L128.008 76.5345C123.353 93.8863 121.026 102.562 114.183 106.508C107.341 110.455 98.6555 108.13 81.2847 103.48L51.5219 95.5142C34.1511 90.8648 25.4656 88.5401 21.5152 81.7052C17.5647 74.8703 19.892 66.1943 24.5465 48.8425L27.7744 36.8088C32.4289 19.457 34.7562 10.781 41.5986 6.83489C48.441 2.88874 57.1264 5.21345 74.4973 9.86287L104.26 17.8291Z" fill="#0047FF"/>
<path d="M81.9258 34.3203C98.8414 34.3203 107.299 34.3203 112.763 39.3046C113.188 39.6928 113.596 40.1 113.985 40.5251C118.974 45.9828 118.974 54.4313 118.974 71.3284C118.974 88.2254 118.974 96.674 113.985 102.132C113.596 102.557 113.188 102.964 112.763 103.352C107.299 108.336 98.8414 108.336 81.9258 108.336H63.585C46.6694 108.336 38.2116 108.336 32.748 103.352C32.3224 102.964 31.9147 102.557 31.5261 102.132C26.5364 96.674 26.5364 88.2254 26.5364 71.3284C26.5364 54.4313 26.5364 45.9828 31.5261 40.5251C31.9147 40.1 32.3224 39.6928 32.748 39.3046C38.2116 34.3203 46.6694 34.3203 63.585 34.3203L81.9258 34.3203Z" fill="url(#paint0_linear)"/>
<path d="M81.4629 63.4146C88.3543 67.2637 91.8 69.1883 91.8428 72.1473C91.8856 75.1064 88.497 77.1296 81.7198 81.1759L75.0904 85.1341C68.1988 89.2488 64.753 91.3061 62.1515 89.8319C59.55 88.3577 59.55 84.3477 59.55 76.3276L59.55 68.6667C59.55 60.8775 59.55 56.9829 62.0872 55.4963C64.6244 54.0097 68.0275 55.9104 74.8335 59.7119L81.4629 63.4146Z" fill="url(#paint1_linear)"/>
<path d="M162.157 90.6895C160.185 90.6895 159.199 89.5639 159.199 87.3126V59.8754C159.199 57.5772 160.138 56.4281 162.016 56.4281C163.166 56.4281 164.176 57.0261 165.045 58.2221L178.074 76.4432L191.174 58.2221C192.019 57.0261 193.005 56.4281 194.132 56.4281C196.057 56.4281 197.019 57.5772 197.019 59.8754V87.3126C197.019 89.5639 196.033 90.6895 194.061 90.6895C192.089 90.6895 191.103 89.4935 191.103 87.1016V66.6291L180.363 81.8955C179.893 82.5521 179.177 82.8805 178.215 82.8805C177.769 82.8805 177.323 82.8101 176.877 82.6694C176.454 82.5287 176.114 82.2707 175.855 81.8955L165.115 66.6291V87.1016C165.115 89.4935 164.129 90.6895 162.157 90.6895Z" fill="url(#paint2_linear)"/>
<path d="M221.233 104.619C219.379 104.619 217.841 104.303 216.62 103.669C215.423 103.06 214.531 102.11 213.944 100.82C213.357 99.5304 213.063 97.9123 213.063 95.9659C213.063 94.6996 213.31 93.7264 213.803 93.0463C214.319 92.3663 215.059 92.0262 216.021 92.0262C217.007 92.0262 217.747 92.3194 218.24 92.9056C218.733 93.4919 218.979 94.3478 218.979 95.4735C218.979 96.7867 219.156 97.6544 219.508 98.0765C219.883 98.4986 220.623 98.7097 221.726 98.7097H243.489C244.428 98.7097 245.015 98.5807 245.249 98.3227C245.484 98.0648 245.602 97.3964 245.602 96.3177V87.1016C242.667 89.1652 238.559 90.1971 233.277 90.1971H231.234C226.75 90.1971 223.17 89.7867 220.494 88.9659C217.841 88.1451 215.939 86.7967 214.789 84.9207C213.639 83.0212 213.063 80.465 213.063 77.2523V59.805C213.063 57.5537 214.049 56.4281 216.021 56.4281C217.993 56.4281 218.979 57.5537 218.979 59.805V77.0412C218.979 79.1049 219.261 80.6644 219.825 81.7196C220.412 82.7515 221.574 83.4433 223.311 83.795C225.072 84.1233 227.713 84.2875 231.234 84.2875H233.277C237.408 84.2875 240.496 83.3964 242.538 81.6141C244.58 79.8084 245.602 77.0881 245.602 73.4533V59.805C245.602 57.5537 246.588 56.4281 248.56 56.4281C250.532 56.4281 251.518 57.5537 251.518 59.805V95.1921C251.518 98.6159 250.954 101.043 249.827 102.473C248.7 103.904 246.752 104.619 243.982 104.619H221.233Z" fill="url(#paint3_linear)"/>
<path d="M267.978 90.1971V56.9206H291.712C295.656 56.9206 298.743 57.7765 300.974 59.4884C303.204 61.1769 304.319 63.5337 304.319 66.5588C304.319 68.0831 304.049 69.408 303.509 70.5337C302.969 71.6593 302.171 72.5739 301.115 73.2774C303.251 75.0128 304.319 77.4165 304.319 80.4885C304.319 82.5052 303.814 84.2406 302.805 85.6945C301.795 87.1485 300.352 88.2624 298.473 89.0363C296.595 89.8101 294.342 90.1971 291.712 90.1971H267.978ZM273.894 84.2875H291.219C296.008 84.2875 298.403 83.1619 298.403 80.9106C298.403 79.1049 297.875 77.8386 296.818 77.1116C295.785 76.3612 294.013 75.986 291.501 75.986H273.894V84.2875ZM273.894 70.0764H291.501C294.365 70.0764 296.243 69.8302 297.135 69.3377C298.027 68.8218 298.473 67.7782 298.473 66.207C298.473 63.9558 296.055 62.8301 291.219 62.8301H273.894V70.0764Z" fill="url(#paint4_linear)"/>
<path d="M337.109 90.1971C332.602 90.1971 329.01 89.7984 326.334 89.0011C323.681 88.1803 321.767 86.8319 320.594 84.9558C319.443 83.0563 318.868 80.4885 318.868 77.2523V69.8653C318.868 66.6291 319.443 64.073 320.594 62.197C321.767 60.2975 323.681 58.949 326.334 58.1517C329.01 57.331 332.602 56.9206 337.109 56.9206H339.152C343.659 56.9206 347.239 57.331 349.892 58.1517C352.545 58.9725 354.446 60.3326 355.597 62.2321C356.747 64.1082 357.322 66.6526 357.322 69.8653V73.6643H324.784V77.0412C324.784 79.1049 325.066 80.6644 325.629 81.7196C326.216 82.7515 327.39 83.4433 329.151 83.795C330.911 84.1233 333.564 84.2875 337.109 84.2875H347.955C349.059 84.2875 349.786 84.0882 350.139 83.6895C350.514 83.2908 350.702 82.5052 350.702 81.3327C350.702 80.1602 350.96 79.2456 351.477 78.589C352.017 77.9324 352.756 77.6041 353.695 77.6041C354.658 77.6275 355.386 77.991 355.879 78.6945C356.372 79.3746 356.618 80.3478 356.618 81.6141C356.618 83.5605 356.325 85.1786 355.738 86.4684C355.151 87.7347 354.247 88.6728 353.026 89.2825C351.829 89.8922 350.303 90.1971 348.448 90.1971H337.109ZM324.819 67.7548H351.371C351.113 65.6911 350.279 64.3779 348.871 63.8151C348.026 63.4868 346.77 63.2405 345.103 63.0764C343.46 62.9122 341.476 62.8301 339.152 62.8301H337.109C334.574 62.8301 332.473 62.9239 330.806 63.1115C329.162 63.2757 327.953 63.5337 327.179 63.8854C325.77 64.4717 324.984 65.7615 324.819 67.7548Z" fill="url(#paint5_linear)"/>
<path d="M375.308 103.001C373.383 103.001 372.42 101.805 372.42 99.4132V59.805C372.42 57.5537 373.43 56.4281 375.448 56.4281C376.505 56.4281 377.233 56.7564 377.632 57.413C378.054 58.0696 378.266 59.1953 378.266 60.7899V62.9005L377.209 61.4934C378.688 59.8754 380.555 58.7145 382.808 58.011C385.086 57.2841 387.703 56.9206 390.661 56.9206H392.704C397.211 56.9206 400.791 57.331 403.444 58.1517C406.097 58.9725 407.998 60.3326 409.149 62.2321C410.299 64.1082 410.874 66.6526 410.874 69.8653V77.2523C410.874 80.465 410.299 83.0212 409.149 84.9207C407.998 86.7967 406.109 88.1451 403.479 88.9659C400.873 89.7867 397.352 90.1971 392.915 90.1971H378.336V99.4132C378.336 101.805 377.327 103.001 375.308 103.001ZM378.336 84.2875H392.915C396.389 84.2875 398.984 84.1233 400.697 83.795C402.411 83.4433 403.55 82.7515 404.113 81.7196C404.677 80.6644 404.958 79.1049 404.958 77.0412V70.0764C404.958 67.9893 404.665 66.4298 404.078 65.398C403.514 64.3662 402.352 63.6861 400.592 63.3578C398.854 63.006 396.225 62.8301 392.704 62.8301H390.661C386.412 62.8301 383.29 63.6978 381.294 65.4332C379.322 67.1451 378.336 69.8184 378.336 73.4533V84.2875Z" fill="url(#paint6_linear)"/>
<path d="M459.042 90.6895C457.07 90.6895 456.084 89.4701 456.084 87.0312V65.2925L431.892 90.1971H426.363V59.8754C426.363 57.5772 427.349 56.4281 429.321 56.4281C431.293 56.4281 432.279 57.6475 432.279 60.0864V82.1066L456.683 56.9206H462V87.2423C462 89.5404 461.014 90.6895 459.042 90.6895Z" fill="url(#paint7_linear)"/>
<defs>
<linearGradient id="paint0_linear" x1="114.573" y1="39.8166" x2="31.0046" y2="102.928" gradientUnits="userSpaceOnUse">
<stop stop-color="white"/>
<stop offset="1" stop-color="#8DA0FF"/>
</linearGradient>
<linearGradient id="paint1_linear" x1="69.0873" y1="55.5724" x2="80.0702" y2="88.1908" gradientUnits="userSpaceOnUse">
<stop stop-color="#3A71FF"/>
<stop offset="1" stop-color="#1D00D2"/>
</linearGradient>
<linearGradient id="paint2_linear" x1="311.05" y1="57.1428" x2="310.6" y2="104.619" gradientUnits="userSpaceOnUse">
<stop stop-color="#BACDFF"/>
<stop offset="1" stop-color="white"/>
</linearGradient>
<linearGradient id="paint3_linear" x1="311.05" y1="57.1428" x2="310.6" y2="104.619" gradientUnits="userSpaceOnUse">
<stop stop-color="#BACDFF"/>
<stop offset="1" stop-color="white"/>
</linearGradient>
<linearGradient id="paint4_linear" x1="311.05" y1="57.1428" x2="310.6" y2="104.619" gradientUnits="userSpaceOnUse">
<stop stop-color="#BACDFF"/>
<stop offset="1" stop-color="white"/>
</linearGradient>
<linearGradient id="paint5_linear" x1="311.05" y1="57.1428" x2="310.6" y2="104.619" gradientUnits="userSpaceOnUse">
<stop stop-color="#BACDFF"/>
<stop offset="1" stop-color="white"/>
</linearGradient>
<linearGradient id="paint6_linear" x1="311.05" y1="57.1428" x2="310.6" y2="104.619" gradientUnits="userSpaceOnUse">
<stop stop-color="#BACDFF"/>
<stop offset="1" stop-color="white"/>
</linearGradient>
<linearGradient id="paint7_linear" x1="311.05" y1="57.1428" x2="310.6" y2="104.619" gradientUnits="userSpaceOnUse">
<stop stop-color="#BACDFF"/>
<stop offset="1" stop-color="white"/>
</linearGradient>
</defs>
</svg>
