<svg width="24" height="25" viewBox="0 0 24 25" fill="none" xmlns="http://www.w3.org/2000/svg">
<path fill-rule="evenodd" clip-rule="evenodd" d="M11.0217 0C17.1089 0 22.0435 4.97694 22.0435 11.1163C22.0435 13.8163 21.089 16.2916 19.5019 18.2175L23.5388 22.289C24.1537 22.9092 24.1537 23.9147 23.5388 24.5349C22.9239 25.155 21.927 25.155 21.3121 24.5349L17.162 20.3491C15.4073 21.5386 13.2949 22.2326 11.0217 22.2326C4.9346 22.2326 0 17.2557 0 11.1163C0 4.97694 4.9346 0 11.0217 0ZM11.0217 19.8505C15.8045 19.8505 19.6817 15.9401 19.6817 11.1163C19.6817 6.29252 15.8045 2.38207 11.0217 2.38207C6.23898 2.38207 2.3618 6.29252 2.3618 11.1163C2.3618 15.9401 6.23898 19.8505 11.0217 19.8505Z" fill="#3D3D42"/>
</svg>
